<?xml version="1.0" standalone="no"?>
<!DOCTYPE svg PUBLIC "-//W3C//DTD SVG 20010904//EN"
 "http://www.w3.org/TR/2001/REC-SVG-20010904/DTD/svg10.dtd">
<svg version="1.0" xmlns="http://www.w3.org/2000/svg"
 width="1024.000000pt" height="1024.000000pt" viewBox="0 0 1024.000000 1024.000000"
 preserveAspectRatio="xMidYMid meet">
<metadata>
Created by potrace 1.14, written by Peter Selinger 2001-2017
</metadata>
<g transform="translate(0.000000,1024.000000) scale(0.100000,-0.100000)"
fill="#000000" stroke="none">
<path d="M5037 8918 c-46 -57 -170 -211 -277 -343 -106 -132 -205 -254 -219
-271 -14 -17 -33 -40 -41 -50 -98 -122 -366 -454 -378 -469 -10 -11 -35 -42
-57 -70 -22 -27 -42 -52 -45 -55 -3 -3 -71 -86 -150 -185 -80 -99 -152 -189
-161 -200 -20 -23 -248 -305 -260 -321 -8 -9 28 -155 171 -709 51 -199 97
-376 104 -405 2 -8 12 -44 21 -80 9 -36 19 -72 20 -80 2 -8 17 -67 34 -130 17
-63 28 -116 25 -119 -6 -6 -1274 -7 -1284 -1 -6 4 -177 509 -243 720 -15 47
-18 50 -122 105 -49 27 -170 92 -268 147 -98 54 -179 98 -181 98 -2 0 -61 32
-132 71 -71 40 -154 85 -184 102 -109 58 -296 161 -327 178 -18 10 -63 35
-100 55 -37 20 -90 49 -118 64 -27 15 -76 42 -107 59 -99 53 -158 85 -318 173
-424 233 -443 243 -437 221 3 -10 14 -58 26 -108 11 -49 34 -148 50 -220 16
-71 32 -141 35 -155 3 -14 19 -83 35 -155 16 -71 41 -181 55 -242 14 -62 38
-164 52 -225 14 -62 28 -124 30 -138 3 -14 18 -79 34 -145 16 -66 31 -131 34
-145 2 -14 14 -68 26 -120 12 -52 23 -102 25 -110 1 -8 8 -33 13 -55 6 -22 13
-51 16 -65 2 -14 27 -126 56 -250 59 -255 58 -253 66 -300 3 -19 7 -37 9 -40
3 -6 82 -341 91 -390 6 -29 118 -522 189 -830 17 -71 78 -337 79 -345 8 -37
20 -91 38 -165 11 -47 22 -96 24 -110 3 -14 9 -38 14 -55 4 -16 12 -48 16 -70
4 -22 8 -44 10 -50 1 -5 32 -140 69 -300 37 -159 71 -305 75 -322 4 -18 6 -33
4 -33 -3 0 0 -8 5 -18 5 -9 11 -30 14 -47 10 -54 18 -88 48 -215 54 -232 43
-212 124 -225 22 -4 72 -13 112 -21 39 -8 89 -16 110 -19 21 -3 52 -9 68 -12
17 -4 32 -7 35 -8 3 -1 26 -4 51 -8 48 -8 77 -13 119 -22 14 -3 63 -12 110
-20 47 -8 96 -17 110 -20 14 -3 39 -8 55 -10 69 -12 142 -25 165 -30 14 -3 63
-12 110 -20 47 -8 96 -17 110 -20 28 -6 244 -45 275 -50 22 -4 175 -32 215
-39 14 -3 63 -12 110 -20 47 -8 108 -20 137 -25 29 -6 74 -13 100 -17 26 -3
51 -8 54 -10 3 -2 21 -6 40 -9 56 -9 142 -25 169 -30 62 -13 363 -63 420 -70
25 -3 56 -8 70 -10 14 -2 57 -7 95 -11 39 -3 78 -8 87 -9 9 -2 52 -7 95 -10
43 -4 94 -8 113 -10 256 -27 1035 -27 1233 0 18 2 69 7 113 10 45 3 93 8 105
10 13 2 51 6 83 10 66 6 102 11 196 26 36 5 79 11 95 13 40 5 149 24 205 36
25 5 61 12 80 14 19 3 45 8 56 10 12 2 37 7 55 10 19 3 45 8 59 11 14 3 39 8
55 11 34 6 317 57 440 79 44 8 91 17 105 20 14 3 41 7 60 11 19 3 55 9 80 14
25 5 61 12 80 14 19 3 46 8 60 11 14 3 124 23 245 45 121 22 231 42 245 45 14
2 77 13 140 25 63 11 124 22 135 24 63 11 93 17 115 21 14 3 63 12 110 20 47
8 96 17 110 20 24 5 74 14 115 21 59 10 75 17 75 30 0 8 20 96 44 197 24 100
47 196 50 212 3 17 19 87 35 157 17 69 32 137 35 150 2 12 9 43 16 68 7 25 14
54 16 65 4 22 46 208 119 520 25 110 48 209 50 220 5 21 38 165 86 375 16 69
38 166 48 215 11 50 22 97 25 105 3 8 7 26 10 40 2 14 12 57 21 95 9 39 18 78
20 88 2 10 25 109 50 220 26 111 48 209 50 217 2 8 15 67 30 130 14 63 28 124
31 135 2 11 31 139 64 285 34 146 81 353 105 460 24 107 60 264 79 348 20 83
38 166 41 184 3 17 8 34 10 38 2 3 6 17 9 31 2 13 11 54 20 90 8 37 17 78 20
90 10 51 36 164 86 379 76 326 118 515 115 518 -1 1 -58 -28 -126 -66 -68 -38
-164 -90 -214 -117 -49 -26 -103 -56 -120 -65 -16 -10 -57 -32 -90 -50 -33
-18 -79 -43 -103 -56 -23 -13 -86 -47 -140 -75 -53 -29 -101 -55 -107 -59 -5
-4 -66 -38 -135 -75 -69 -37 -147 -80 -175 -95 -27 -15 -79 -44 -115 -63 -36
-19 -114 -62 -174 -96 -60 -34 -111 -61 -112 -61 -1 0 -114 -61 -251 -136
-136 -75 -282 -154 -323 -176 -41 -22 -80 -44 -87 -50 -6 -5 -21 -41 -33 -81
-32 -108 -221 -681 -226 -686 -6 -7 -1274 -7 -1284 -1 -5 3 5 57 21 120 37
140 134 518 201 775 130 503 157 619 149 629 -32 41 -227 283 -236 292 -5 6
-23 28 -40 50 -16 21 -45 56 -63 78 -18 23 -39 48 -45 56 -97 121 -304 378
-312 386 -5 6 -23 28 -40 49 -33 42 -119 148 -170 210 -36 44 -356 441 -444
550 -31 39 -58 72 -61 75 -3 3 -23 28 -45 55 -22 28 -44 55 -50 61 -5 6 -21
26 -35 44 -14 18 -48 62 -77 97 l-52 63 -84 -102z"/>
</g>
</svg>
